<?xml version="1.0" encoding="iso-8859-1"?>
<!-- Generator: Adobe Illustrator 19.0.0, SVG Export Plug-In . SVG Version: 6.00 Build 0)  -->
<svg version="1.1" id="Layer_1" xmlns="http://www.w3.org/2000/svg" xmlns:xlink="http://www.w3.org/1999/xlink" x="0px" y="0px"
	 viewBox="0 0 491.52 491.52" style="enable-background:new 0 0 491.52 491.52;" xml:space="preserve">
<circle style="fill:#334D5C;" cx="245.76" cy="245.76" r="245.76"/>
<path style="opacity:0.1;enable-background:new    ;" d="M491.52,245.76c0-13.26-1.083-26.264-3.104-38.955L386.56,104.95h-32.87
	v11.315h-9.421v10.24l9.421,9.421v0.154l-19.763-19.763v-0.051h-10.394v10.24l18.739,18.739h-0.154l-28.928-28.928v-0.051h-10.394
	v10.24l18.739,18.739h-0.154l-28.979-28.979h-10.342v10.24l18.739,18.739h-0.154l-28.979-28.979h-10.342v10.24l18.739,18.739h-0.154
	l-28.979-28.979h-10.342v10.24l18.739,18.739h-0.154l-28.979-28.979h-10.342v10.24l18.739,18.739h-0.154l-28.979-28.979h-10.342
	v10.24l18.739,18.739h-0.154l-28.979-28.979h-10.342v10.24l18.739,18.739h-0.154l-28.979-28.979h-10.394v8.448L137.83,104.95h-32.87
	v32.87l19.814,19.814h-8.499v10.394l31.539,31.539v0.102l-21.299-21.299h-10.24v10.394l31.539,31.539v0.102l-21.299-21.299h-10.24
	V209.5l31.795,31.795v0.102l-21.555-21.555h-10.24v10.394l31.795,31.795v0.102l-21.555-21.555h-10.24v10.394l36.352,36.352h-0.102
	l-26.01-26.01h-10.24v10.394l41.523,41.523h-0.102l-31.181-31.181h-10.24v10.394l46.746,46.746h-0.102l-36.403-36.403h-10.24v10.394
	l31.795,31.795v0.102l-21.555-21.555h-10.24v10.394l19.814,19.814h-0.102l-9.472-9.472h-10.24v9.472H104.96v32.819l101.87,101.87
	c12.683,2.019,25.679,3.1,38.93,3.1C381.49,491.52,491.52,381.49,491.52,245.76z"/>
<g>
	<rect x="323.533" y="365.005" style="fill:#E1E6E9;" width="10.368" height="10.24"/>
	<rect x="219.832" y="365.005" style="fill:#E1E6E9;" width="10.368" height="10.24"/>
	<rect x="157.619" y="365.005" style="fill:#E1E6E9;" width="10.368" height="10.24"/>
	<rect x="178.355" y="365.005" style="fill:#E1E6E9;" width="10.363" height="10.24"/>
	<rect x="240.573" y="365.005" style="fill:#E1E6E9;" width="10.368" height="10.24"/>
	<rect x="261.325" y="365.005" style="fill:#E1E6E9;" width="10.368" height="10.24"/>
	<rect x="199.091" y="365.005" style="fill:#E1E6E9;" width="10.368" height="10.24"/>
	<rect x="282.061" y="365.005" style="fill:#E1E6E9;" width="10.368" height="10.24"/>
	<rect x="302.797" y="365.005" style="fill:#E1E6E9;" width="10.368" height="10.24"/>
	<rect x="116.265" y="199.091" style="fill:#E1E6E9;" width="10.24" height="10.368"/>
	<rect x="116.265" y="240.573" style="fill:#E1E6E9;" width="10.24" height="10.368"/>
	<rect x="116.265" y="219.832" style="fill:#E1E6E9;" width="10.24" height="10.368"/>
	<rect x="116.265" y="157.619" style="fill:#E1E6E9;" width="10.24" height="10.368"/>
	<rect x="116.265" y="323.533" style="fill:#E1E6E9;" width="10.24" height="10.368"/>
	<rect x="116.265" y="178.355" style="fill:#E1E6E9;" width="10.24" height="10.368"/>
	<rect x="116.265" y="261.325" style="fill:#E1E6E9;" width="10.24" height="10.368"/>
	<rect x="116.265" y="282.061" style="fill:#E1E6E9;" width="10.24" height="10.368"/>
	<rect x="116.265" y="302.797" style="fill:#E1E6E9;" width="10.24" height="10.368"/>
	<rect x="178.355" y="116.27" style="fill:#E1E6E9;" width="10.368" height="10.24"/>
	<rect x="157.619" y="116.27" style="fill:#E1E6E9;" width="10.368" height="10.24"/>
	<rect x="199.096" y="116.27" style="fill:#E1E6E9;" width="10.368" height="10.24"/>
	<rect x="282.061" y="116.27" style="fill:#E1E6E9;" width="10.368" height="10.24"/>
	<rect x="302.797" y="116.27" style="fill:#E1E6E9;" width="10.368" height="10.24"/>
	<rect x="323.533" y="116.27" style="fill:#E1E6E9;" width="10.368" height="10.24"/>
	<rect x="219.837" y="116.27" style="fill:#E1E6E9;" width="10.368" height="10.24"/>
	<rect x="240.579" y="116.27" style="fill:#E1E6E9;" width="10.368" height="10.24"/>
	<rect x="261.325" y="116.27" style="fill:#E1E6E9;" width="10.368" height="10.24"/>
	<rect x="365.005" y="240.579" style="fill:#E1E6E9;" width="10.24" height="10.368"/>
	<rect x="365.005" y="261.325" style="fill:#E1E6E9;" width="10.24" height="10.368"/>
	<rect x="365.005" y="219.837" style="fill:#E1E6E9;" width="10.24" height="10.368"/>
	<rect x="365.005" y="302.797" style="fill:#E1E6E9;" width="10.24" height="10.363"/>
	<rect x="365.005" y="282.061" style="fill:#E1E6E9;" width="10.24" height="10.368"/>
	<rect x="365.005" y="323.533" style="fill:#E1E6E9;" width="10.24" height="10.368"/>
	<rect x="365.005" y="199.096" style="fill:#E1E6E9;" width="10.24" height="10.368"/>
	<rect x="365.005" y="178.36" style="fill:#E1E6E9;" width="10.24" height="10.368"/>
	<polygon style="fill:#E1E6E9;" points="375.252,344.273 365.012,344.273 365.012,353.707 353.706,353.707 353.706,365.014 
		344.272,365.014 344.272,375.254 353.706,375.254 353.706,386.56 386.56,386.56 386.56,353.707 375.252,353.707 	"/>
	<rect x="365.005" y="157.619" style="fill:#E1E6E9;" width="10.24" height="10.368"/>
	<polygon style="fill:#E1E6E9;" points="137.812,104.96 104.96,104.96 104.96,137.814 116.268,137.814 116.268,147.249 
		126.508,147.249 126.508,137.814 137.812,137.814 137.812,126.509 147.248,126.509 147.248,116.269 137.812,116.269 	"/>
	<polygon style="fill:#E1E6E9;" points="353.706,104.96 353.706,116.269 344.272,116.269 344.272,126.509 353.706,126.509 
		353.706,137.814 365.012,137.814 365.012,147.249 375.252,147.249 375.252,137.814 386.56,137.814 386.56,104.96 	"/>
	<polygon style="fill:#E1E6E9;" points="137.812,353.707 126.508,353.707 126.508,344.273 116.268,344.273 116.268,353.707 
		104.96,353.707 104.96,386.56 137.812,386.56 137.812,375.254 147.248,375.254 147.248,365.014 137.812,365.014 	"/>
</g>
<rect x="148.065" y="235.459" style="fill:#F6C358;" width="195.379" height="10.24"/>
<path style="fill:#FFFFFF;" d="M147.832,145.223v77.64h195.855v-77.64H147.832z M230.75,184.044l-72.678,26.39v-52.781
	L230.75,184.044z M182.063,155.463h127.395l-63.697,23.13L182.063,155.463z M245.76,189.494l63.697,23.13H182.063L245.76,189.494z
	 M260.77,184.044l72.678-26.391v52.781L260.77,184.044z"/>
<rect x="148.065" y="261.376" style="fill:#E1E6E9;" width="92.518" height="10.24"/>
<rect x="250.931" y="261.376" style="fill:#27A2DB;" width="92.518" height="10.24"/>
<g>
	<rect x="148.065" y="287.283" style="fill:#E1E6E9;" width="92.518" height="10.24"/>
	<rect x="250.931" y="287.283" style="fill:#E1E6E9;" width="92.518" height="10.24"/>
	<rect x="148.065" y="313.242" style="fill:#E1E6E9;" width="92.518" height="10.24"/>
	<rect x="250.931" y="313.242" style="fill:#E1E6E9;" width="92.518" height="10.24"/>
	<rect x="148.065" y="339.149" style="fill:#E1E6E9;" width="92.518" height="10.24"/>
	<rect x="250.931" y="339.149" style="fill:#E1E6E9;" width="92.518" height="10.24"/>
</g>
<g>
</g>
<g>
</g>
<g>
</g>
<g>
</g>
<g>
</g>
<g>
</g>
<g>
</g>
<g>
</g>
<g>
</g>
<g>
</g>
<g>
</g>
<g>
</g>
<g>
</g>
<g>
</g>
<g>
</g>
</svg>
