<?xml version="1.0" encoding="iso-8859-1"?>
<!-- Generator: Adobe Illustrator 19.0.0, SVG Export Plug-In . SVG Version: 6.00 Build 0)  -->
<svg version="1.1" id="Layer_1" xmlns="http://www.w3.org/2000/svg" xmlns:xlink="http://www.w3.org/1999/xlink" x="0px" y="0px"
	 viewBox="0 0 441.039 441.039" style="enable-background:new 0 0 441.039 441.039;" xml:space="preserve">
<g>
	<rect x="218.519" y="5.853" style="fill:#F9C032;" width="32.667" height="21.333"/>
	<rect x="218.519" y="5.853" style="fill:#2D4151;" width="4" height="48"/>
	<polygon style="fill:#ED4C58;" points="114.764,112.186 220.519,48.186 326.275,112.186 	"/>
	<rect x="28.977" y="177.994" style="fill:#F9C032;" width="383.084" height="257.192"/>
	<polygon style="fill:#ED4C58;" points="0,184.186 220.519,85.186 441.039,184.186 	"/>
	<rect x="132.519" y="112.186" style="fill:#F9C032;" width="176" height="323"/>
	<g>
		<rect x="172.712" y="221.499" style="fill:#ED4C58;" width="95.615" height="213.687"/>
		<rect x="178.763" y="227.287" style="fill:#D64153;" width="83.78" height="142.633"/>
		<rect x="183.534" y="233.202" style="fill:#ED4C58;" width="74.236" height="130.801"/>
		<rect x="188.024" y="237.438" style="fill:#2D4151;" width="65.254" height="122.328"/>
		<rect x="178.398" y="374.944" style="fill:#D64153;" width="83.779" height="54.44"/>
		<rect x="183.168" y="379.524" style="fill:#ED4C58;" width="74.236" height="45.278"/>
		<rect x="188.793" y="385.149" style="fill:#D64153;" width="62.986" height="34.029"/>
		<path style="opacity:0.2;fill:#FCFAFA;enable-background:new    ;" d="M249.243,270.791V356.1h-48.801
			C200.442,356.1,243.265,342.4,249.243,270.791z"/>
	</g>
	<g>
		<rect x="42.673" y="221.499" style="fill:#ED4C58;" width="87.157" height="140.429"/>
		<rect x="47.048" y="225.874" style="fill:#D64153;" width="78.407" height="131.679"/>
		<rect x="51.423" y="230.249" style="fill:#ED4C58;" width="69.657" height="122.929"/>
		<rect x="55.798" y="234.624" style="fill:#2D4151;" width="60.907" height="114.179"/>
		<rect x="53.611" y="265.903" style="fill:#ED4C58;" width="65.282" height="6.125"/>
		<rect x="83.804" y="232.361" style="fill:#ED4C58;" width="4.894" height="36.604"/>
		<path style="opacity:0.2;fill:#FCFAFA;enable-background:new    ;" d="M113.814,236.795v26.7H98.54
			C98.54,263.495,111.943,259.208,113.814,236.795z"/>
		<path style="opacity:0.2;fill:#FCFAFA;enable-background:new    ;" d="M81.158,236.795v26.7H65.884
			C65.884,263.495,79.286,259.208,81.158,236.795z"/>
		<path style="opacity:0.2;fill:#FCFAFA;enable-background:new    ;" d="M113.814,277.046v68.409H74.68
			C74.68,345.454,109.02,334.468,113.814,277.046z"/>
		<rect x="38.645" y="358.865" style="fill:#D8A745;" width="95.212" height="14.664"/>
		<rect x="38.645" y="353.178" style="fill:#FFFFFF;" width="95.212" height="14.664"/>
	</g>
	<rect x="311.209" y="221.499" style="fill:#ED4C58;" width="87.157" height="140.429"/>
	<rect x="315.584" y="225.874" style="fill:#D64153;" width="78.407" height="131.679"/>
	<rect x="319.959" y="230.249" style="fill:#ED4C58;" width="69.657" height="122.929"/>
	<rect x="324.334" y="234.624" style="fill:#2D4151;" width="60.907" height="114.179"/>
	<rect x="322.146" y="265.903" style="fill:#ED4C58;" width="65.282" height="6.125"/>
	<rect x="352.34" y="232.361" style="fill:#ED4C58;" width="4.894" height="36.604"/>
	<path style="opacity:0.2;fill:#FCFAFA;enable-background:new    ;" d="M382.35,236.795v26.7h-15.274
		C367.076,263.495,380.479,259.208,382.35,236.795z"/>
	<path style="opacity:0.2;fill:#FCFAFA;enable-background:new    ;" d="M349.693,236.795v26.7h-15.274
		C334.419,263.495,347.822,259.208,349.693,236.795z"/>
	<rect x="307.181" y="358.865" style="fill:#D8A745;" width="95.212" height="14.664"/>
	<rect x="307.181" y="353.178" style="fill:#FFFFFF;" width="95.212" height="14.664"/>
	<g>
		<circle style="fill:#ED4C58;" cx="220.519" cy="150.049" r="28.112"/>
		<path style="fill:#2D4151;" d="M242.974,150.051c0,12.4-10.05,22.46-22.46,22.46c-7.26,0-13.72-3.45-17.82-8.8
			c-2.91-3.78-4.63-8.52-4.63-13.66c0-12.4,10.05-22.46,22.45-22.46c7.05,0,13.34,3.25,17.45,8.32
			C241.104,139.771,242.974,144.691,242.974,150.051z"/>
		<path style="opacity:0.2;fill:#FCFAFA;enable-background:new    ;" d="M240.454,150.571c0,10.848-8.792,19.649-19.649,19.649
			c-6.351,0-12.003-3.018-15.59-7.699c14.855-7.567,24.618-16.631,30.856-24.321C238.818,141.578,240.454,145.882,240.454,150.571z"
			/>
		<rect x="218.269" y="124.521" style="fill:#ED4C58;" width="4.5" height="50.5"/>
		<rect x="195.269" y="147.521" style="fill:#ED4C58;" width="50.5" height="4.5"/>
	</g>
	<rect x="132.519" y="112.186" style="fill:#D8A745;" width="176" height="9"/>
	<polygon style="fill:#D64153;" points="220.519,48.186 220.519,112.186 326.275,112.186 	"/>
	<rect x="28.977" y="184.186" style="fill:#D8A745;" width="103.542" height="10"/>
	<rect x="308.519" y="184.186" style="fill:#D8A745;" width="103.542" height="10"/>
	<rect x="155.853" y="185.83" style="fill:#FFFFFF;" width="129.333" height="28"/>
	<g>
		<path style="fill:#ED4C58;" d="M181.01,194.405c-0.332-0.537-0.774-0.927-1.326-1.172c-0.553-0.245-1.129-0.367-1.729-0.367
			c-0.442,0-0.876,0.056-1.303,0.166c-0.426,0.111-0.809,0.276-1.148,0.498c-0.34,0.221-0.612,0.513-0.817,0.876
			c-0.206,0.364-0.308,0.79-0.308,1.279c0,0.379,0.06,0.715,0.178,1.007c0.119,0.292,0.312,0.557,0.581,0.793
			c0.268,0.237,0.631,0.458,1.089,0.663c0.458,0.206,1.019,0.411,1.682,0.616c0.647,0.206,1.275,0.427,1.883,0.664
			s1.145,0.537,1.611,0.9c0.465,0.363,0.837,0.817,1.113,1.362s0.415,1.228,0.415,2.049c0,0.837-0.166,1.563-0.498,2.179
			s-0.77,1.125-1.314,1.528c-0.545,0.403-1.173,0.703-1.883,0.9s-1.445,0.296-2.203,0.296c-0.49,0-0.979-0.043-1.469-0.13
			c-0.49-0.087-0.959-0.221-1.409-0.402c-0.45-0.182-0.873-0.418-1.268-0.711c-0.395-0.292-0.734-0.651-1.019-1.078l1.706-1.397
			c0.363,0.616,0.868,1.082,1.516,1.397c0.647,0.316,1.334,0.474,2.061,0.474c0.426,0,0.856-0.063,1.291-0.189
			c0.434-0.126,0.825-0.312,1.172-0.557c0.347-0.245,0.631-0.548,0.853-0.912c0.221-0.363,0.332-0.782,0.332-1.255
			c0-0.521-0.087-0.943-0.261-1.268c-0.174-0.323-0.442-0.604-0.805-0.841c-0.364-0.237-0.821-0.45-1.374-0.64
			s-1.2-0.41-1.942-0.663c-0.6-0.189-1.153-0.406-1.658-0.651c-0.506-0.245-0.944-0.545-1.315-0.9s-0.663-0.782-0.876-1.279
			c-0.213-0.498-0.319-1.093-0.319-1.788c0-0.806,0.157-1.508,0.474-2.108c0.315-0.6,0.742-1.102,1.279-1.504
			c0.537-0.403,1.145-0.707,1.824-0.912s1.389-0.308,2.132-0.308c0.947,0,1.812,0.146,2.593,0.438
			c0.782,0.292,1.48,0.802,2.097,1.528L181.01,194.405z"/>
		<path style="fill:#ED4C58;" d="M197.97,194.903c-0.505-0.679-1.129-1.188-1.871-1.528c-0.743-0.339-1.516-0.509-2.321-0.509
			c-0.932,0-1.789,0.189-2.57,0.569c-0.782,0.379-1.457,0.888-2.025,1.527c-0.569,0.64-1.011,1.382-1.327,2.227
			s-0.474,1.726-0.474,2.641c0,0.979,0.158,1.892,0.474,2.736c0.316,0.845,0.754,1.58,1.314,2.203
			c0.561,0.624,1.232,1.117,2.014,1.48s1.646,0.544,2.594,0.544c1.026,0,1.942-0.201,2.748-0.604
			c0.805-0.402,1.508-0.983,2.108-1.741l1.492,1.255c-0.758,1.011-1.67,1.753-2.735,2.227c-1.066,0.474-2.271,0.71-3.612,0.71
			c-1.2,0-2.321-0.221-3.364-0.663c-1.042-0.442-1.946-1.054-2.712-1.836c-0.766-0.781-1.366-1.709-1.8-2.783
			c-0.435-1.073-0.651-2.25-0.651-3.529c0-1.231,0.209-2.384,0.628-3.458c0.418-1.074,1.006-2.005,1.765-2.795
			c0.758-0.79,1.658-1.413,2.7-1.872c1.042-0.458,2.187-0.687,3.435-0.687c1.137,0,2.23,0.205,3.28,0.616s1.931,1.082,2.641,2.013
			L197.97,194.903z"/>
		<path style="fill:#ED4C58;" d="M202.896,191.445h1.99v7.106h8.954v-7.106h1.99v16.77h-1.99v-7.816h-8.954v7.816h-1.99V191.445z"/>
		<path style="fill:#ED4C58;" d="M227.791,208.641c-1.279,0-2.452-0.221-3.518-0.663s-1.99-1.054-2.771-1.836
			c-0.782-0.781-1.39-1.713-1.824-2.795c-0.435-1.082-0.651-2.254-0.651-3.518c0-1.263,0.217-2.436,0.651-3.517
			c0.434-1.082,1.042-2.014,1.824-2.795c0.782-0.781,1.706-1.393,2.771-1.835c1.066-0.442,2.238-0.663,3.518-0.663
			c1.279,0,2.452,0.221,3.518,0.663c1.066,0.442,1.989,1.054,2.771,1.835c0.782,0.782,1.39,1.714,1.824,2.795
			c0.434,1.082,0.651,2.254,0.651,3.517c0,1.264-0.217,2.436-0.651,3.518c-0.435,1.082-1.042,2.014-1.824,2.795
			c-0.782,0.782-1.705,1.394-2.771,1.836S229.069,208.641,227.791,208.641z M227.791,206.794c0.979,0,1.875-0.181,2.688-0.544
			s1.512-0.861,2.096-1.493c0.584-0.631,1.038-1.37,1.362-2.214s0.486-1.749,0.486-2.712c0-0.963-0.162-1.867-0.486-2.712
			s-0.778-1.583-1.362-2.215c-0.584-0.631-1.283-1.129-2.096-1.492c-0.813-0.363-1.709-0.545-2.688-0.545s-1.875,0.182-2.688,0.545
			c-0.813,0.363-1.512,0.861-2.096,1.492c-0.584,0.632-1.039,1.37-1.362,2.215s-0.485,1.749-0.485,2.712
			c0,0.963,0.162,1.868,0.485,2.712s0.778,1.583,1.362,2.214c0.584,0.632,1.283,1.129,2.096,1.493
			C225.915,206.612,226.811,206.794,227.791,206.794z"/>
		<path style="fill:#ED4C58;" d="M247.545,208.641c-1.279,0-2.452-0.221-3.518-0.663s-1.99-1.054-2.771-1.836
			c-0.782-0.781-1.39-1.713-1.824-2.795c-0.435-1.082-0.651-2.254-0.651-3.518c0-1.263,0.217-2.436,0.651-3.517
			c0.434-1.082,1.042-2.014,1.824-2.795c0.782-0.781,1.706-1.393,2.771-1.835c1.066-0.442,2.238-0.663,3.518-0.663
			c1.279,0,2.452,0.221,3.518,0.663c1.066,0.442,1.99,1.054,2.771,1.835c0.782,0.782,1.39,1.714,1.824,2.795
			c0.434,1.082,0.651,2.254,0.651,3.517c0,1.264-0.218,2.436-0.651,3.518c-0.435,1.082-1.042,2.014-1.824,2.795
			c-0.781,0.782-1.705,1.394-2.771,1.836S248.824,208.641,247.545,208.641z M247.545,206.794c0.979,0,1.875-0.181,2.688-0.544
			s1.512-0.861,2.096-1.493c0.584-0.631,1.038-1.37,1.362-2.214c0.323-0.845,0.485-1.749,0.485-2.712
			c0-0.963-0.162-1.867-0.485-2.712c-0.324-0.845-0.778-1.583-1.362-2.215c-0.584-0.631-1.283-1.129-2.096-1.492
			c-0.813-0.363-1.709-0.545-2.688-0.545s-1.875,0.182-2.688,0.545c-0.813,0.363-1.512,0.861-2.096,1.492
			c-0.584,0.632-1.039,1.37-1.362,2.215s-0.485,1.749-0.485,2.712c0,0.963,0.162,1.868,0.485,2.712s0.778,1.583,1.362,2.214
			c0.584,0.632,1.283,1.129,2.096,1.493C245.67,206.612,246.566,206.794,247.545,206.794z"/>
		<path style="fill:#ED4C58;" d="M259.507,191.445h1.99v14.922h7.675v1.848h-9.665L259.507,191.445L259.507,191.445z"/>
	</g>
	<rect x="330.856" y="340.519" style="fill:#A67C52;" width="35.667" height="8.283"/>
	<rect x="336.522" y="340.519" style="fill:#F9C032;" width="1.667" height="8.283"/>
	<rect x="358.356" y="340.519" style="fill:#F9C032;" width="1.667" height="8.283"/>
	<path style="opacity:0.2;fill:#FCFAFA;enable-background:new    ;" d="M382.35,277.046v68.409h-39.134
		C343.216,345.454,377.556,334.468,382.35,277.046z"/>
</g>
<g>
</g>
<g>
</g>
<g>
</g>
<g>
</g>
<g>
</g>
<g>
</g>
<g>
</g>
<g>
</g>
<g>
</g>
<g>
</g>
<g>
</g>
<g>
</g>
<g>
</g>
<g>
</g>
<g>
</g>
</svg>
