<?xml version="1.0" encoding="iso-8859-1"?>
<!-- Generator: Adobe Illustrator 19.0.0, SVG Export Plug-In . SVG Version: 6.00 Build 0)  -->
<svg version="1.1" id="Layer_1" xmlns="http://www.w3.org/2000/svg" xmlns:xlink="http://www.w3.org/1999/xlink" x="0px" y="0px"
	 viewBox="0 0 512 512" style="enable-background:new 0 0 512 512;" xml:space="preserve">
<path style="fill:#40596B;" d="M493.867,189.867v300.8c0,11.733-9.6,21.333-21.333,21.333H39.467
	c-11.733,0-21.333-9.6-21.333-21.333v-300.8H493.867z"/>
<path style="fill:#84DBFF;" d="M73.6,151.467H0v-44.8c0-11.733,9.6-21.333,21.333-21.333H73.6V151.467z"/>
<rect x="73.6" y="85.333" style="fill:#F2F2F2;" width="73.6" height="66.133"/>
<rect x="146.133" y="85.333" style="fill:#84DBFF;" width="73.6" height="66.133"/>
<rect x="219.733" y="85.333" style="fill:#F2F2F2;" width="73.6" height="66.133"/>
<rect x="292.267" y="85.333" style="fill:#84DBFF;" width="73.6" height="66.133"/>
<rect x="365.867" y="85.333" style="fill:#F2F2F2;" width="73.6" height="66.133"/>
<path style="fill:#84DBFF;" d="M512,151.467h-73.6V85.333h52.267c11.733,0,21.333,9.6,21.333,21.333V151.467z"/>
<path style="fill:#334A5E;" d="M493.867,189.867V233.6c-5.333,3.2-11.733,5.333-18.133,5.333c-20.267,0-36.267-16-36.267-36.267
	c0,20.267-16,36.267-36.267,36.267c-20.267,0-36.267-16-36.267-36.267c0,20.267-16,36.267-36.267,36.267s-36.267-16-36.267-36.267
	c0,20.267-16,36.267-36.267,36.267s-36.267-16-36.267-36.267c0,20.267-16,36.267-36.267,36.267s-36.267-16-36.267-36.267
	c0,20.267-16,36.267-36.267,36.267s-36.267-16-36.267-36.267c0,20.267-16,36.267-36.267,36.267c-6.4,0-12.8-2.133-18.133-5.333
	v-43.733H493.867z"/>
<path style="fill:#54C0EB;" d="M36.267,228.267L36.267,228.267C16,228.267,0,211.2,0,192v-40.533h73.6V192
	C73.6,211.2,56.533,228.267,36.267,228.267z"/>
<path style="fill:#E2E2E2;" d="M109.867,228.267L109.867,228.267c-20.267,0-36.267-16-36.267-36.267v-40.533h73.6V192
	C146.133,211.2,130.133,228.267,109.867,228.267z"/>
<path style="fill:#54C0EB;" d="M182.4,228.267L182.4,228.267c-20.267,0-36.267-16-36.267-36.267v-40.533h73.6V192
	C219.733,211.2,202.667,228.267,182.4,228.267z"/>
<path style="fill:#E2E2E2;" d="M256,228.267L256,228.267c-20.267,0-36.267-16-36.267-36.267v-40.533h73.6V192
	C292.267,211.2,276.267,228.267,256,228.267z"/>
<path style="fill:#54C0EB;" d="M329.6,228.267L329.6,228.267c-20.267,0-36.267-16-36.267-36.267v-40.533h73.6V192
	C365.867,211.2,349.867,228.267,329.6,228.267z"/>
<path style="fill:#E2E2E2;" d="M402.133,228.267L402.133,228.267c-20.267,0-36.267-16-36.267-36.267v-40.533h73.6V192
	C438.4,211.2,422.4,228.267,402.133,228.267z"/>
<path style="fill:#54C0EB;" d="M475.733,228.267L475.733,228.267c-20.267,0-36.267-16-36.267-36.267v-40.533H512V192
	C512,211.2,496,228.267,475.733,228.267z"/>
<path style="fill:#ACB3BA;" d="M65.067,512V369.067c0-44.8,36.267-81.067,81.067-81.067l0,0c44.8,0,81.067,36.267,81.067,81.067V512
	H65.067z"/>
<g>
	<rect x="298.667" y="352" style="fill:#FF7058;" width="56.533" height="56.533"/>
	<rect x="298.667" y="419.2" style="fill:#FF7058;" width="56.533" height="56.533"/>
	<rect x="365.867" y="352" style="fill:#FF7058;" width="56.533" height="56.533"/>
	<rect x="365.867" y="419.2" style="fill:#FF7058;" width="56.533" height="56.533"/>
</g>
<path style="fill:#FFD15C;" d="M423.467,114.133H88.533v-92.8C88.533,9.6,98.133,0,109.867,0h291.2C412.8,0,422.4,9.6,422.4,21.333
	v92.8H423.467z"/>
<g>
	<path style="fill:#FF7058;" d="M173.867,56.533c4.267-1.067,8.533-5.333,8.533-11.733S177.067,32,167.467,32H140.8v50.133h26.667
		c9.6,0,14.933-6.4,14.933-13.867C183.467,61.867,179.2,56.533,173.867,56.533z M152.533,41.6H166.4c3.2,0,5.333,2.133,5.333,5.333
		c0,3.2-2.133,5.333-5.333,5.333h-13.867V41.6z M166.4,72.533h-13.867V60.8H166.4c4.267,0,6.4,2.133,6.4,5.333
		C172.8,70.4,170.667,72.533,166.4,72.533z"/>
	<path style="fill:#FF7058;" d="M215.467,32l-19.2,50.133H208l3.2-8.533h21.333l3.2,8.533h11.733L229.333,32H215.467z M214.4,64
		l7.467-21.333L229.333,64H214.4z"/>
	<polygon style="fill:#FF7058;" points="296.533,62.933 273.067,32 262.4,32 262.4,82.133 273.067,82.133 273.067,49.067 
		297.6,82.133 307.2,82.133 307.2,32 296.533,32 	"/>
	<polygon style="fill:#FF7058;" points="348.8,55.467 369.067,32 355.2,32 338.133,54.4 338.133,32 327.467,32 327.467,82.133 
		338.133,82.133 338.133,66.133 341.333,61.867 357.333,82.133 370.133,82.133 	"/>
</g>
<g>
</g>
<g>
</g>
<g>
</g>
<g>
</g>
<g>
</g>
<g>
</g>
<g>
</g>
<g>
</g>
<g>
</g>
<g>
</g>
<g>
</g>
<g>
</g>
<g>
</g>
<g>
</g>
<g>
</g>
</svg>
