<?xml version="1.0" encoding="iso-8859-1"?>
<!-- Generator: Adobe Illustrator 19.0.0, SVG Export Plug-In . SVG Version: 6.00 Build 0)  -->
<svg version="1.1" id="Layer_1" xmlns="http://www.w3.org/2000/svg" xmlns:xlink="http://www.w3.org/1999/xlink" x="0px" y="0px"
	 viewBox="0 0 512 512" style="enable-background:new 0 0 512 512;" xml:space="preserve">
<path style="fill:#FF933A;" d="M413.832,17.207v477.586c0,5.361-4.309,9.707-9.624,9.707h-86.615H134.739H57.748
	c-10.63,0-19.248-8.692-19.248-19.414V26.914C38.5,16.192,47.118,7.5,57.748,7.5h76.991h182.854h86.615
	C409.523,7.5,413.832,11.846,413.832,17.207z"/>
<path style="fill:#7DE5EF;" d="M423.08,279.297h-47.743v-77.656h57.743v67.656C433.08,274.82,428.602,279.297,423.08,279.297z"/>
<path style="fill:#4FCEDB;" d="M433.08,191.934v4.854v4.854v9.707v4.854v53.389c0,5.361-4.309,9.707-9.624,9.707h-4.812v-63.096
	h-72.179v-14.561V187.08h76.991c3.56,0,6.661,1.955,8.326,4.854H433.08z"/>
<path style="fill:#FF9C97;" d="M442.327,201.641H384.96v-87.363h67.367v77.363C452.327,197.163,447.85,201.641,442.327,201.641z"/>
<path style="fill:#FF5274;" d="M452.327,114.277v4.854v4.854v9.707v4.854v53.389c0,5.361-4.309,9.707-9.624,9.707h-4.812v-63.096
	h-72.179v-14.561v-14.561h76.991c3.56,0,6.661,1.955,8.326,4.854L452.327,114.277L452.327,114.277z"/>
<path style="fill:#FFFF98;" d="M463.5,123.984h-78.54V46.328h78.54c5.523,0,10,4.477,10,10v57.656
	C473.5,119.507,469.023,123.984,463.5,123.984z"/>
<path style="fill:#FFF261;" d="M473.5,56.035v58.242c0,5.361-4.309,9.707-9.624,9.707h-4.812V46.328h4.812
	C469.191,46.328,473.5,50.674,473.5,56.035z"/>
<path style="fill:#F7ECB7;" d="M374.96,504.5H116.243c-11.046,0-20-8.954-20-20v-467c0-5.523,4.477-10,10-10H374.96
	c5.523,0,10,4.477,10,10v477C384.96,500.023,380.483,504.5,374.96,504.5z"/>
<path style="fill:#EFD497;" d="M371.486,504.5H82.77V7.5h288.717L371.486,504.5L371.486,504.5z"/>
<path style="fill:#FFB356;" d="M346.089,504.5H77.372c-5.523,0-10-4.477-10-10v-477c0-5.523,4.477-10,10-10h268.717
	c5.523,0,10,4.477,10,10v477C356.089,500.023,351.611,504.5,346.089,504.5z"/>
<path style="fill:#FFFFFF;" d="M288.163,178.014c8.336,2.214,14.143,9.95,14.143,18.785v4.842H121.154v-4.842
	c0-8.835,5.807-16.571,14.143-18.785c16.193-4.3,44.62-10.347,76.433-10.347S271.97,173.714,288.163,178.014z"/>
<path style="fill:#B9F088;" d="M121.154,337.539v-140.74c0-8.835,5.807-16.572,14.143-18.785c12.215-3.244,31.395-7.48,53.737-9.367
	l22.696,23.287l22.696-23.287c22.342,1.886,41.522,6.123,53.737,9.367c8.336,2.214,14.143,9.95,14.143,18.785v140.74H121.154z"/>
<path style="fill:#8DDD64;" d="M302.307,196.799v140.74h-39.488V172.405c10.085,1.807,18.735,3.853,25.345,5.609
	C296.499,180.227,302.307,187.964,302.307,196.799z M121.154,196.799v140.74h37.596V172.751c-9.275,1.719-17.261,3.618-23.453,5.263
	C126.961,180.227,121.154,187.964,121.154,196.799z"/>
<path style="fill:#7CC464;" d="M302.307,196.799v140.74H286.47V177.572c0.571,0.148,1.149,0.297,1.693,0.441
	C296.499,180.227,302.307,187.964,302.307,196.799z M142.913,337.539h15.837V172.751c-5.831,1.081-11.15,2.233-15.837,3.348V337.539
	z"/>
<path style="fill:#FFEF9F;" d="M244.843,99.717c0,18.764-14.825,33.975-33.113,33.975s-33.113-15.211-33.113-33.975
	s14.825-33.975,33.113-33.975S244.843,80.953,244.843,99.717z"/>
<path style="fill:#FFDB93;" d="M244.843,99.717c0,18.764-14.825,33.975-33.113,33.975c-2.605,0-5.137-0.319-7.569-0.902
	c14.638-3.514,25.544-16.982,25.544-33.072s-10.905-29.56-25.544-33.074c2.432-0.584,4.963-0.902,7.569-0.902
	C230.018,65.742,244.843,80.953,244.843,99.717z"/>
<path d="M463.876,38.828h-42.544V17.207C421.332,7.719,413.65,0,404.208,0h-28.872h-28.871c-0.063,0-0.125,0.008-0.188,0.01
	C346.213,0.009,346.152,0,346.089,0H77.372c-0.063,0-0.125,0.009-0.188,0.01C77.121,0.008,77.059,0,76.995,0H57.748
	C42.999,0,31,12.074,31,26.914v458.172C31,499.926,42.999,512,57.748,512h19.247c0.064,0,0.125-0.008,0.189-0.01
	c0.063,0.001,0.125,0.01,0.188,0.01h268.717c0.063,0,0.125-0.009,0.188-0.01c0.063,0.002,0.125,0.01,0.188,0.01h9.624h19.247h28.872
	c9.442,0,17.124-7.719,17.124-17.207V308.418c0-4.142-3.357-7.5-7.5-7.5s-7.5,3.358-7.5,7.5v186.375
	c0,1.217-0.953,2.207-2.124,2.207h-11.905c0.093-0.724,0.157-1.458,0.157-2.207V286.797h30.996c9.442,0,17.124-7.719,17.124-17.207
	v-38.828c0-4.142-3.357-7.5-7.5-7.5s-7.5,3.358-7.5,7.5v38.828c0,1.217-0.953,2.207-2.124,2.207H392.46v-62.656h50.243
	c9.442,0,17.124-7.719,17.124-17.207v-38.828c0-4.142-3.357-7.5-7.5-7.5s-7.5,3.358-7.5,7.5v38.828c0,1.217-0.953,2.207-2.124,2.207
	H392.46v-62.656h71.416c9.442,0,17.124-7.719,17.124-17.207V56.035C481,46.547,473.318,38.828,463.876,38.828z M406.332,17.207
	v21.621H392.46V17.207c0-0.749-0.064-1.483-0.157-2.207h11.905C405.379,15,406.332,15.99,406.332,17.207z M77.372,497
	c-1.379,0-2.5-1.122-2.5-2.5v-477c0-1.378,1.121-2.5,2.5-2.5h268.717c1.379,0,2.5,1.122,2.5,2.5v477c0,1.378-1.121,2.5-2.5,2.5
	H77.372z M46,485.086V26.914C46,20.345,51.271,15,57.748,15h2.324c-0.118,0.819-0.2,1.649-0.2,2.5v477c0,0.851,0.082,1.681,0.2,2.5
	h-2.324C51.271,497,46,491.655,46,485.086z M363.389,497c0.118-0.819,0.2-1.649,0.2-2.5v-477c0-0.851-0.082-1.681-0.2-2.5h11.947
	c1.171,0,2.124,0.99,2.124,2.207v477.586c0,1.217-0.953,2.207-2.124,2.207H363.389z M466,114.277c0,1.217-0.953,2.207-2.124,2.207
	H392.46V53.828h71.416c1.171,0,2.124,0.99,2.124,2.207V114.277L466,114.277z M211.73,141.191c22.581,0,40.952-18.605,40.952-41.475
	s-18.371-41.475-40.952-41.475c-22.582,0-40.953,18.605-40.953,41.475S189.148,141.191,211.73,141.191z M211.73,73.242
	c14.31,0,25.952,11.876,25.952,26.475s-11.643,26.475-25.952,26.475c-14.311,0-25.953-11.876-25.953-26.475
	S197.42,73.242,211.73,73.242z M182.858,345.039c-4.143,0-7.5-3.358-7.5-7.5s3.357-7.5,7.5-7.5h72.984v-99.277
	c0-4.142,3.357-7.5,7.5-7.5s7.5,3.358,7.5,7.5v99.277h24.895v-133.24c0-5.444-3.575-10.186-8.695-11.532
	c-17.53-4.608-44.825-10.101-75.312-10.101s-57.782,5.493-75.313,10.101c-5.119,1.346-8.695,6.088-8.695,11.532v133.24h22.982
	v-99.277c0-4.142,3.357-7.5,7.5-7.5s7.5,3.358,7.5,7.5v106.777c0,4.142-3.357,7.5-7.5,7.5h-37.982c-4.143,0-7.5-3.358-7.5-7.5
	v-140.74c0-12.254,8.176-22.962,19.883-26.039c18.385-4.833,47.036-10.593,79.125-10.593c32.088,0,60.739,5.761,79.124,10.594
	c11.707,3.076,19.883,13.784,19.883,26.039v140.74c0,4.142-3.357,7.5-7.5,7.5L182.858,345.039L182.858,345.039z M315.469,463.73
	c0,4.142-3.357,7.5-7.5,7.5H259.85c-4.143,0-7.5-3.358-7.5-7.5s3.357-7.5,7.5-7.5h48.119
	C312.111,456.23,315.469,459.588,315.469,463.73z"/>
<g>
</g>
<g>
</g>
<g>
</g>
<g>
</g>
<g>
</g>
<g>
</g>
<g>
</g>
<g>
</g>
<g>
</g>
<g>
</g>
<g>
</g>
<g>
</g>
<g>
</g>
<g>
</g>
<g>
</g>
</svg>
